<?xml version="1.0" encoding="utf-8"?><svg viewBox="0 0 130 52" xmlns="http://www.w3.org/2000/svg" xmlns:xlink="http://www.w3.org/1999/xlink"><style>:root>svg{display:none}:root>svg:target{display:block}</style><svg viewBox="0 0 24 24" id="ic-arrow-left" xmlns="http://www.w3.org/2000/svg"><path fill-rule="evenodd" clip-rule="evenodd" d="M9.207 17.207a1 1 0 0 1-1.414 0l-4.5-4.5a1 1 0 0 1 0-1.414l4.5-4.5a1 1 0 0 1 1.414 1.414L6.414 11H20a1 1 0 1 1 0 2H6.414l2.793 2.793a1 1 0 0 1 0 1.414Z"/></svg><svg viewBox="0 0 24 24" id="ic-arrow-right" xmlns="http://www.w3.org/2000/svg"><path fill-rule="evenodd" clip-rule="evenodd" d="M14.793 6.793a1 1 0 0 1 1.414 0l4.5 4.5a1 1 0 0 1 0 1.414l-4.5 4.5a1 1 0 0 1-1.414-1.414L17.586 13H4a1 1 0 1 1 0-2h13.586l-2.793-2.793a1 1 0 0 1 0-1.414Z"/></svg><svg viewBox="0 0 24 24" id="ic-arrow-top" xmlns="http://www.w3.org/2000/svg"><path fill-rule="evenodd" clip-rule="evenodd" d="M4.293 15.707a1 1 0 0 1 0-1.414l7-7a1 1 0 0 1 1.414 0l7 7a1 1 0 0 1-1.414 1.414L12 9.414l-6.293 6.293a1 1 0 0 1-1.414 0Z"/></svg><svg viewBox="0 0 16 17" id="ic-chat" xmlns="http://www.w3.org/2000/svg"><path fill-rule="evenodd" clip-rule="evenodd" d="M14.615 7.546a5.166 5.166 0 0 1-.653 1.858c.025.142.038.286.038.43 0 .502-.146.982-.415 1.419-.135.218-.17.473-.183.642-.015.193-.01.404.004.607.016.228.044.468.076.693-.26-.075-.542-.152-.812-.212a5.819 5.819 0 0 0-.66-.115c-.181-.019-.443-.034-.676.042a5.425 5.425 0 0 1-1.668.258 5.365 5.365 0 0 1-1.92-.343 8.824 8.824 0 0 1-2.712-.291C6.085 13.748 7.818 14.5 9.666 14.5a6.76 6.76 0 0 0 2.054-.315h.006c.016 0 .062 0 .147.008.134.014.306.044.504.09.395.088.839.22 1.184.33.734.232 1.445-.408 1.313-1.152-.056-.32-.115-.711-.138-1.05a2.96 2.96 0 0 1-.004-.413.783.783 0 0 1 .01-.083c.375-.621.591-1.329.591-2.082 0-.849-.264-1.624-.718-2.288Z"/><path fill-rule="evenodd" clip-rule="evenodd" d="M3.731 4.3c-.899.687-1.398 1.589-1.398 2.534 0 .471.123.925.353 1.347.088.161.113.327.121.44.01.122.005.248-.005.365a5.847 5.847 0 0 1-.134.766c-.07.307-.162.635-.255.943.352-.128.737-.259 1.102-.365.295-.087.593-.161.858-.203.228-.036.56-.072.845.027a6.48 6.48 0 0 0 2.115.347c1.432 0 2.703-.445 3.602-1.132.899-.688 1.398-1.59 1.398-2.535 0-.945-.5-1.847-1.398-2.535-.9-.687-2.17-1.132-3.602-1.132-1.431 0-2.703.445-3.602 1.132Zm-.81-1.06c1.152-.88 2.714-1.406 4.412-1.406s3.26.526 4.412 1.406c1.152.881 1.921 2.146 1.921 3.594s-.769 2.713-1.921 3.594c-1.152.88-2.714 1.406-4.412 1.406-.895 0-1.75-.146-2.527-.412 0 .003-.064-.004-.225.022-.186.03-.423.087-.693.165a20.59 20.59 0 0 0-1.599.558c-.796.31-1.606-.455-1.338-1.27.142-.43.31-.976.419-1.447.055-.237.09-.436.104-.584a1.16 1.16 0 0 0 .005-.114A4.117 4.117 0 0 1 1 6.834c0-1.448.77-2.713 1.922-3.594Z"/></svg><svg viewBox="0 0 10 8" id="ic-checkbox" xmlns="http://www.w3.org/2000/svg"><path fill-rule="evenodd" clip-rule="evenodd" d="M9.828.195c.23.26.23.683 0 .943L3.945 7.805a.54.54 0 0 1-.832 0L.173 4.47a.731.731 0 0 1 0-.942.54.54 0 0 1 .831 0L3.53 6.39 8.996.195a.54.54 0 0 1 .832 0Z"/></svg><svg viewBox="0 0 16 17" id="ic-clock" xmlns="http://www.w3.org/2000/svg"><path d="M8.666 4.833a.667.667 0 0 0-1.333 0v3.666c0 .177.07.347.195.472l2 2a.667.667 0 0 0 .943-.943L8.666 8.223v-3.39Z"/><path fill-rule="evenodd" clip-rule="evenodd" d="M8 1.166a7.333 7.333 0 1 0 0 14.667A7.333 7.333 0 0 0 8 1.166ZM2 8.499a6 6 0 1 1 12 0 6 6 0 0 1-12 0Z"/></svg><svg viewBox="0 0 53 52" id="ic-constr" xmlns="http://www.w3.org/2000/svg"><g clip-path="url(#aga)"><path d="M50.977 27.523c.84 0 1.523-.682 1.523-1.523V14.625c0-.841-.682-1.523-1.523-1.523H28.023V3.25c0-.841-.682-1.523-1.523-1.523H10.25c-.841 0-1.523.682-1.523 1.523v9.852H2.023c-.84 0-1.523.682-1.523 1.523V26c0 .841.682 1.523 1.523 1.523h6.704v8.329H2.023c-.84 0-1.523.682-1.523 1.523V48.75c0 .841.682 1.523 1.523 1.523h48.954c.84 0 1.523-.682 1.523-1.523V37.375c0-.841-.682-1.523-1.523-1.523h-6.704v-8.329h6.704Zm-1.524-3.046H36.148v-8.329h13.305v8.329Zm-16.351 0H19.898v-8.329h13.204v8.329ZM11.773 4.773h13.204v8.329H11.773V4.773ZM3.547 24.477v-8.329h13.305v8.329H3.547Zm8.226 3.046h13.204v8.329H11.773v-8.329ZM3.547 38.898h13.305v8.329H3.547v-8.329Zm16.351 0h13.204v8.329H19.898v-8.329Zm29.555 0v8.329H36.148v-8.329h13.305Zm-8.226-3.046H28.023v-8.329h13.204v8.329Z"/></g><defs><clipPath id="aga"><rect transform="translate(.5)"/></clipPath></defs></svg><svg viewBox="0 0 53 52" id="ic-design" xmlns="http://www.w3.org/2000/svg"><g clip-path="url(#aha)"><path d="M11.266 36.664c-2.52 0-4.57 2.05-4.57 4.57 0 2.52 2.05 4.57 4.57 4.57 2.52 0 4.57-2.05 4.57-4.57 0-2.52-2.05-4.57-4.57-4.57Zm0 6.094c-.84 0-1.524-.684-1.524-1.524s.684-1.523 1.524-1.523 1.523.683 1.523 1.523c0 .84-.683 1.524-1.523 1.524Z"/><path d="M49.75 30.95a4.572 4.572 0 0 0 .286-5.005l-6.09-10.65c-1.054-1.825-3.276-2.658-5.258-2.128a4.579 4.579 0 0 0-2.176-4.954L25.958 2.12a4.574 4.574 0 0 0-4.695.076A4.572 4.572 0 0 0 17.359 0H5.07C2.55 0 .5 2.05.5 4.57v42.86C.5 49.95 2.55 52 5.07 52h42.86c2.52 0 4.57-2.05 4.57-4.57V35.14a4.576 4.576 0 0 0-2.75-4.19ZM18.883 47.43c0 .84-.684 1.523-1.524 1.523H5.07c-.84 0-1.523-.683-1.523-1.523V33.617h15.336V47.43Zm0-16.86H3.547V18.281h15.336v12.29Zm0-15.336H3.547V4.57c0-.84.683-1.523 1.523-1.523h12.29c.84 0 1.523.683 1.523 1.523v10.664ZM21.93 6.05l.423-.734a1.526 1.526 0 0 1 2.082-.558l10.554 6.094c.728.42.978 1.354.557 2.083l-1.76 3.06a1.517 1.517 0 0 0-.118.203L21.93 36.603V6.05Zm0 36.663L36.17 17.958l2.945-1.7c.746-.43 1.77-.17 2.188.555l6.09 10.65c.422.73.176 1.665-.561 2.09L21.93 43.972v-1.258Zm27.523 4.717c0 .84-.683 1.523-1.523 1.523H21.668c.162-.458.253-.95.26-1.46l23.967-13.876h2.035c.84 0 1.523.684 1.523 1.524V47.43Z"/></g><defs><clipPath id="aha"><rect transform="translate(.5)"/></clipPath></defs></svg><svg viewBox="0 0 24 24" id="ic-facebook" xmlns="http://www.w3.org/2000/svg"><path d="M17.563 1.005 14.786 1c-3.12 0-5.137 2.125-5.137 5.414v2.497H6.857c-.242 0-.437.2-.437.448v3.617c0 .248.196.449.437.449h2.792v9.126c0 .248.195.449.437.449h3.643a.443.443 0 0 0 .437-.449v-9.126h3.265c.241 0 .436-.2.436-.449l.002-3.617a.456.456 0 0 0-.128-.317.431.431 0 0 0-.31-.131h-3.265V6.794c0-1.017.236-1.533 1.525-1.533h1.871c.241 0 .437-.202.437-.45V1.454a.443.443 0 0 0-.436-.448Z"/></svg><svg viewBox="0 0 48 48" id="ic-helmet" xmlns="http://www.w3.org/2000/svg"><path d="M45.188 34.086v-4.461c0-4.63-1.494-9.031-4.318-12.727a21.497 21.497 0 0 0-9.844-7.166 4.224 4.224 0 0 0-4.213-4.013h-5.625a4.224 4.224 0 0 0-4.214 4.013 21.497 21.497 0 0 0-9.844 7.166c-2.825 3.696-4.317 8.097-4.317 12.727v4.46A4.225 4.225 0 0 0 0 38.063a4.224 4.224 0 0 0 4.219 4.22H43.78A4.223 4.223 0 0 0 48 38.061a4.225 4.225 0 0 0-2.813-3.976ZM5.624 29.625c0-5.071 2.166-9.818 5.719-13.205v4.767a1.406 1.406 0 0 0 2.812 0v-6.973a18.292 18.292 0 0 1 2.813-1.47V24a1.406 1.406 0 0 0 2.812 0V9.938c0-.776.631-1.407 1.407-1.407h5.625c.775 0 1.406.631 1.406 1.406V24a1.406 1.406 0 0 0 2.812 0V12.744c.987.411 1.927.905 2.813 1.47v6.973a1.406 1.406 0 0 0 2.812 0V16.42c3.553 3.387 5.719 8.134 5.719 13.205v4.219H5.625v-4.219Zm38.156 9.844H4.22a1.408 1.408 0 0 1 0-2.813H43.78a1.408 1.408 0 0 1 0 2.813Z"/></svg><svg viewBox="0 0 48 48" id="ic-house" xmlns="http://www.w3.org/2000/svg"><g clip-path="url(#aka)"><path d="M28.922 21.094c-1.957 0-3.657.891-4.922 2.58-1.266-1.689-2.965-2.58-4.922-2.58-3.655 0-6.328 3.004-6.328 6.69 0 4.766 4.619 7.76 10.335 12.659a1.402 1.402 0 0 0 1.83 0c5.723-4.905 10.335-7.895 10.335-12.659 0-3.683-2.67-6.69-6.328-6.69ZM24 37.529c-5.15-4.351-8.438-6.697-8.438-9.745 0-2.21 1.512-3.878 3.516-3.878 2.606 0 3.529 3.06 3.57 3.198a1.407 1.407 0 0 0 2.706-.006c.009-.032.924-3.192 3.568-3.192 2.004 0 3.515 1.667 3.515 3.878 0 3.05-3.291 5.398-8.437 9.745Z"/><path d="M46.593 45.188h-4.218V23.345l.024.017a1.406 1.406 0 0 0 1.944-.299l3.376-4.499a1.41 1.41 0 0 0-.302-1.984L24.83.272a1.406 1.406 0 0 0-1.656-.003l-9.111 6.579V4.22c0-.777-.63-1.407-1.407-1.407H7.031c-.776 0-1.406.63-1.406 1.407v8.72L.583 16.58a1.406 1.406 0 0 0-.301 1.984l3.375 4.499a1.406 1.406 0 0 0 1.944.299l.024-.017v21.843H1.406a1.406 1.406 0 1 0 0 2.813h45.187a1.406 1.406 0 0 0 0-2.813ZM8.437 5.626h2.813v3.253l-2.813 2.03V5.626ZM5.082 20.274l-1.69-2.252L24 3.142l20.61 14.88-1.69 2.252L24.822 7.298a1.406 1.406 0 0 0-1.645 0c-.319.23-17.694 12.688-18.096 12.976Zm3.356 1.054C18.767 13.92 22.587 11.183 24 10.168c1.91 1.37 7.12 5.107 15.563 11.16v23.86H8.436v-23.86Z"/></g><defs><clipPath id="aka"><rect/></clipPath></defs></svg><svg viewBox="0 0 48 48" id="ic-like" xmlns="http://www.w3.org/2000/svg"><path d="M44.017 29.719a4.204 4.204 0 0 0 1.077-2.813 4.224 4.224 0 0 0-4.219-4.218h-8.188c.81-2.461 1.157-5.727 1.157-7.126v-1.406a5.632 5.632 0 0 0-5.625-5.625h-1.407c-.645 0-1.207.439-1.364 1.065l-.765 3.065c-1.074 4.292-4.482 9.027-8.009 9.888a4.225 4.225 0 0 0-3.924-2.674H4.312c-.776 0-1.406.63-1.406 1.406v25.313c0 .776.63 1.406 1.406 1.406h8.438a4.223 4.223 0 0 0 3.808-2.405l4.832 1.61c1.58.528 3.226.795 4.892.795h11.78a4.224 4.224 0 0 0 3.923-5.773 4.227 4.227 0 0 0 3.109-4.07 4.203 4.203 0 0 0-1.077-2.813 4.204 4.204 0 0 0 1.077-2.813 4.203 4.203 0 0 0-1.077-2.812ZM14.157 43.78c0 .776-.632 1.407-1.407 1.407H5.719v-22.5h7.031c.775 0 1.406.63 1.406 1.406V43.78Zm23.905-12.656h2.813c.775 0 1.406.63 1.406 1.406 0 .776-.63 1.407-1.406 1.407h-2.813a1.407 1.407 0 0 0 0 2.812h2.813c.775 0 1.406.63 1.406 1.406 0 .776-.63 1.407-1.406 1.407h-2.813a1.407 1.407 0 0 0 0 2.812c.776 0 1.407.63 1.407 1.406 0 .776-.631 1.407-1.407 1.407h-11.78c-1.363 0-2.71-.219-4.003-.65l-5.31-1.77V25.367c2.206-.42 4.365-1.816 6.314-4.103 1.903-2.233 3.446-5.193 4.128-7.92l.5-2h.308a2.816 2.816 0 0 1 2.812 2.812v1.406c0 1.888-.59 5.51-1.346 7.126h-2.872a1.407 1.407 0 0 0 0 2.812h14.062c.775 0 1.406.63 1.406 1.406 0 .776-.63 1.407-1.406 1.407h-2.813a1.407 1.407 0 0 0 0 2.812Z"/><path d="M9.938 42.375a1.406 1.406 0 1 0 0-2.813 1.406 1.406 0 0 0 0 2.813ZM29.625 0c-.777 0-1.406.63-1.406 1.406v2.907a1.406 1.406 0 0 0 2.812 0V1.405C31.031.63 30.401 0 29.625 0ZM23.659 6.201 21.67 4.213A1.406 1.406 0 1 0 19.681 6.2l1.99 1.99a1.406 1.406 0 0 0 1.988-1.99ZM39.569 4.213c-.55-.55-1.44-.55-1.99 0L35.592 6.2a1.406 1.406 0 1 0 1.989 1.99l1.989-1.99c.549-.549.549-1.44 0-1.988Z"/></svg><svg viewBox="0 0 20 20" id="ic-linked-in" xmlns="http://www.w3.org/2000/svg"><path d="m18.328 18.333.005-.001v-6.113c0-2.99-.644-5.293-4.14-5.293-1.68 0-2.808.922-3.269 1.796h-.048V7.205H7.56v11.127h3.451v-5.51c0-1.45.275-2.853 2.072-2.853 1.77 0 1.797 1.655 1.797 2.946v5.418h3.447ZM1.941 7.206h3.456v11.127H1.94V7.206ZM3.667 1.666a2.002 2.002 0 0 0-2.001 2.001c0 1.105.897 2.02 2.001 2.02 1.105 0 2.002-.915 2.002-2.02a2.003 2.003 0 0 0-2.002-2.001Z"/></svg><svg fill="none" viewBox="0 0 24 24" id="ic-loadMore" xmlns="http://www.w3.org/2000/svg"><g opacity=".9" fill-rule="evenodd" clip-rule="evenodd" fill="#424551"><path d="M2.1 2a1 1 0 0 1 1 1v4.436A9.999 9.999 0 0 1 12 2c4.355 0 8.058 2.784 9.43 6.667a1 1 0 1 1-1.885.666A8.004 8.004 0 0 0 5.07 8H8.1a1 1 0 1 1 0 2h-6a1 1 0 0 1-1-1V3a1 1 0 0 1 1-1ZM3.177 14.057a1 1 0 0 1 1.276.61A8.004 8.004 0 0 0 18.928 16h-3.03a1 1 0 1 1 0-2h6a1 1 0 0 1 1 1v6a1 1 0 1 1-2 0v-4.436a9.999 9.999 0 0 1-8.9 5.436c-4.356 0-8.059-2.784-9.43-6.667a1 1 0 0 1 .609-1.276Z"/></g></svg><svg viewBox="0 0 16 17" id="ic-location" xmlns="http://www.w3.org/2000/svg"><path fill-rule="evenodd" clip-rule="evenodd" d="M8 5.667a1.333 1.333 0 1 0 0 2.667 1.333 1.333 0 0 0 0-2.667ZM5.335 7.001a2.667 2.667 0 1 1 5.333 0 2.667 2.667 0 0 1-5.333 0Z"/><path fill-rule="evenodd" clip-rule="evenodd" d="M8 2.667c-2.412 0-4.333 1.891-4.333 4.18 0 1.866 1.122 3.75 2.347 5.232a18.612 18.612 0 0 0 1.987 2.048 18.61 18.61 0 0 0 1.986-2.048c1.226-1.482 2.347-3.366 2.347-5.232 0-2.289-1.92-4.18-4.333-4.18Zm0 12.334-.412.523-.002-.001-.004-.003-.013-.01a8.622 8.622 0 0 1-.214-.178 19.944 19.944 0 0 1-2.368-2.402c-1.274-1.542-2.653-3.734-2.653-6.083 0-3.064 2.557-5.513 5.667-5.513s5.666 2.449 5.666 5.513c0 2.349-1.378 4.541-2.653 6.082a19.935 19.935 0 0 1-2.367 2.403 11.273 11.273 0 0 1-.215.177l-.013.01-.004.004h-.001l-.413-.522Zm0 0 .413.523a.667.667 0 0 1-.825 0L8 15.001Z"/></svg><svg viewBox="0 0 130 22" id="ic-logo" xmlns="http://www.w3.org/2000/svg"><g clip-path="url(#apa)"><path d="M0 11.1C0 5 3.3 1.3 8.7 1.3c4.1 0 7.4 2.5 8 6.2.1.4-.2.7-.6.7h-2.6c-.3 0-.5-.2-.6-.5-.5-1.9-2.1-3.1-4.2-3.1C5.8 4.6 4 7.1 4 11.1s1.8 6.5 4.8 6.5c2.1 0 3.6-1.1 4.2-2.9.1-.3.3-.5.6-.5h2.6c.4 0 .7.4.6.7-.6 3.6-3.8 6-8 6-5.5 0-8.8-3.8-8.8-9.8ZM24.3 20.4h-2.9c-.3 0-.5-.2-.5-.5V2.6c0-.4.4-.8.8-.8h7c4.1 0 6.6 2.3 6.6 5.9 0 2.1-1 4-2.7 5-.4.2-.5.7-.3 1l3.1 5.9c.2.3-.1.7-.4.7h-3.3c-.2 0-.4-.1-.5-.3l-2.9-6c-.1-.3-.4-.4-.7-.4h-2.3c-.3 0-.5.2-.5.5V20c.1.2-.2.4-.5.4Zm.6-10.2c0 .3.2.5.5.5h3c2 0 3.1-1.1 3.1-2.9 0-1.8-1.2-2.9-3.1-2.9h-2.9c-.3 0-.5.2-.5.5v4.8h-.1ZM51.5 20.4h-11c-.4 0-.7-.3-.7-.7V2.5c0-.4.3-.7.7-.7h11c.4 0 .7.3.7.7v1.9c0 .4-.3.7-.7.7h-7.3c-.3 0-.5.2-.5.5V9c0 .3.2.5.5.5H51c.4 0 .7.3.7.7v1.7c0 .4-.3.7-.7.7h-6.8c-.3 0-.5.2-.5.5v3.8c0 .3.2.5.5.5h7.3c.4 0 .7.3.7.7V20c0 .1-.3.4-.7.4ZM67 15.9h-5.7c-.3 0-.5.2-.6.4L59.6 20c-.1.3-.3.4-.6.4h-2.6c-.4 0-.7-.4-.6-.8l6-17.4c.1-.2.3-.4.6-.4h3.7c.3 0 .5.2.6.4l6 17.4c.1.4-.2.8-.6.8h-2.9c-.3 0-.5-.2-.6-.4l-1.1-3.7c0-.2-.3-.4-.5-.4ZM62.1 13h4.1c.2 0 .3-.2.3-.4l-2.2-7h-.2l-2.2 7c-.1.2 0 .4.2.4ZM79 19.7V5.5c0-.3-.2-.5-.5-.5h-4.4c-.4 0-.8-.3-.8-.8V2.5c0-.4.3-.8.8-.8h13.6c.4 0 .8.3.8.8v1.7c0 .4-.3.8-.8.8h-4.4c-.3 0-.5.2-.5.5v14.3c0 .4-.3.7-.7.7h-2.5c-.3-.1-.6-.4-.6-.8ZM103.8 20.4h-11c-.4 0-.7-.3-.7-.7V2.5c0-.4.3-.7.7-.7h11c.4 0 .7.3.7.7v1.9c0 .4-.3.7-.7.7h-7.3c-.3 0-.5.2-.5.5V9c0 .3.2.5.5.5h6.8c.4 0 .7.3.7.7v1.7c0 .4-.3.7-.7.7h-6.8c-.3 0-.5.2-.5.5v3.8c0 .3.2.5.5.5h7.3c.4 0 .7.3.7.7V20c0 .1-.3.4-.7.4Z"/><path d="m117.7 9.7-6.2-8.1c-.4-.4-.9-.6-1.4-.6-.5 0-1 .2-1.4.6-.7.8-.7 2 0 2.8l4.9 6.6-4.9 6.6c-.7.8-.7 2 0 2.8.4.4.9.6 1.4.6.5 0 1-.2 1.4-.6l6.2-8.1c.7-.6.7-1.8 0-2.6ZM120.343 9.7l6.2-8.1c.4-.4.9-.6 1.4-.6.5 0 1 .2 1.4.6.7.8.7 2 0 2.8l-4.9 6.6 4.9 6.6c.7.8.7 2 0 2.8-.4.4-.9.6-1.4.6-.5 0-1-.2-1.4-.6l-6.2-8.1c-.7-.6-.7-1.8 0-2.6Z" fill="#FF5A30"/></g><defs><clipPath id="apa"><rect/></clipPath></defs></svg><svg viewBox="0 0 24 24" id="ic-mess" xmlns="http://www.w3.org/2000/svg"><path d="M12 2C6.478 2 2 6.145 2 11.259c0 2.913 1.454 5.512 3.726 7.21V22l3.405-1.869c.909.252 1.871.388 2.869.388 5.523 0 10-4.145 10-9.259C22 6.146 17.523 2 12 2Zm.994 12.469-2.546-2.716-4.97 2.716 5.467-5.803 2.609 2.716 4.906-2.716-5.466 5.803Z"/></svg><svg viewBox="0 0 20 20" id="ic-mute-video" xmlns="http://www.w3.org/2000/svg"><path fill-rule="evenodd" clip-rule="evenodd" d="M12 15.583c.584.416 1.334.083 1.334-.667v-3.75l-3.084 3.083L12 15.583Z" fill="#fff"/><path fill-rule="evenodd" clip-rule="evenodd" d="M17.25 4.416a.805.805 0 0 0-1.166 0l-2.75 2.75V5.083c0-.667-.834-1.084-1.334-.667L9.667 6.333c-.333.166-.667.333-1.083.333H6.667C5.75 6.666 5 7.416 5 8.333v3.333c0 .917.75 1.667 1.667 1.667h.5l-2.75 2.75a.806.806 0 0 0 0 1.166.806.806 0 0 0 1.167 0L17.25 5.583a.805.805 0 0 0 0-1.167Z"/></svg><svg viewBox="0 0 48 48" id="ic-painting" xmlns="http://www.w3.org/2000/svg"><path d="M39.563 4.219A4.224 4.224 0 0 0 35.343 0H7.22A4.224 4.224 0 0 0 3 4.219v8.437a4.224 4.224 0 0 0 4.219 4.219h28.125a4.224 4.224 0 0 0 4.218-4.219V11.25h1.407c.775 0 1.406.631 1.406 1.406v5.625c0 .776-.631 1.407-1.406 1.407H24.094a4.224 4.224 0 0 0-4.219 4.218v4.219h-1.406c-.777 0-1.407.63-1.407 1.406v5.549l-1.406 5.715C14.742 44.453 17.506 48 21.281 48c3.778 0 6.539-3.55 5.627-7.2L25.5 35.08V29.53c0-.776-.63-1.406-1.406-1.406h-1.407v-4.219c0-.775.631-1.406 1.407-1.406h16.875a4.224 4.224 0 0 0 4.218-4.219v-5.625a4.224 4.224 0 0 0-4.218-4.219h-1.407V4.22ZM22.686 30.937v2.907h-2.812v-2.907h2.813Zm-1.406 14.25a2.985 2.985 0 0 1-2.895-3.714l1.185-4.817h3.42l1.187 4.822a2.985 2.985 0 0 1-2.897 3.71ZM7.22 2.813h28.125c.775 0 1.406.63 1.406 1.406v1.406h-4.219c-1.366 0-3.114.512-5.138 1.104-2.733.801-5.83 1.708-8.924 1.708-3.016 0-5.142-.88-7.017-1.657-1.434-.594-2.789-1.155-4.233-1.155H5.812V4.219c0-.776.631-1.407 1.407-1.407Zm29.531 9.843c0 .775-.631 1.406-1.406 1.406H7.219a1.408 1.408 0 0 1-1.407-1.406V8.437H7.22c.885 0 1.888.416 3.157.941 2.013.834 4.518 1.872 8.093 1.872 3.497 0 6.944-1.01 9.715-1.821 1.74-.51 3.384-.992 4.347-.992h4.219v4.22Z"/></svg><svg viewBox="0 0 49 48" id="ic-pantone" xmlns="http://www.w3.org/2000/svg"><g clip-path="url(#ata)"><path d="M10.438 33.844a4.224 4.224 0 0 0-4.22 4.218 4.224 4.224 0 0 0 4.22 4.22 4.223 4.223 0 0 0 4.218-4.22 4.223 4.223 0 0 0-4.219-4.218Zm0 5.625a1.408 1.408 0 0 1 0-2.813c.775 0 1.406.631 1.406 1.407 0 .775-.631 1.406-1.406 1.406Z"/><path d="M45.962 28.569a4.22 4.22 0 0 0 .264-4.62l-5.623-9.831c-.972-1.684-3.023-2.453-4.852-1.964a4.227 4.227 0 0 0-2.009-4.573L24 1.957a4.222 4.222 0 0 0-4.334.07A4.22 4.22 0 0 0 16.062 0H4.72A4.224 4.224 0 0 0 .5 4.219V43.78A4.224 4.224 0 0 0 4.719 48H44.28a4.224 4.224 0 0 0 4.219-4.219V32.438a4.224 4.224 0 0 0-2.538-3.869ZM17.469 43.781c0 .776-.631 1.407-1.407 1.407H4.72c-.776 0-1.407-.631-1.407-1.407v-12.75H17.47v12.75Zm0-15.562H3.312V16.875H17.47v11.344Zm0-14.157H3.312V4.22c0-.776.631-1.407 1.407-1.407h11.343c.776 0 1.407.631 1.407 1.407v9.843Zm2.812-8.477.391-.678a1.408 1.408 0 0 1 1.922-.515l9.742 5.625c.672.388.903 1.25.514 1.923l-1.625 2.825c-.04.06-.077.122-.108.187L20.28 33.787V5.584Zm0 33.842 13.146-22.85 2.718-1.57c.69-.397 1.634-.156 2.02.512l5.622 9.832a1.411 1.411 0 0 1-.518 1.93c-1.005.58-21.999 12.735-22.988 13.308v-1.162Zm25.407 4.354c0 .776-.631 1.407-1.407 1.407H20.04c.15-.423.234-.877.24-1.349l22.124-12.808h1.878c.776 0 1.407.631 1.407 1.407V43.78Z"/></g><defs><clipPath id="ata"><rect transform="translate(.5)"/></clipPath></defs></svg><svg viewBox="0 0 19 22" id="ic-play-video" xmlns="http://www.w3.org/2000/svg"><path d="M18.5 10.134a1 1 0 0 1 0 1.732L2 21.392a1 1 0 0 1-1.5-.866V1.474A1 1 0 0 1 2 .608l16.5 9.526Z"/></svg><svg viewBox="0 0 53 52" id="ic-project" xmlns="http://www.w3.org/2000/svg"><g clip-path="url(#ava)"><path d="M46.406 3.148a6.097 6.097 0 0 0-5.276 3.047H2.023C1.183 6.195.5 6.877.5 7.72v39.61c0 .84.682 1.523 1.523 1.523h44.383a6.1 6.1 0 0 0 6.094-6.094V9.242a6.1 6.1 0 0 0-6.094-6.094Zm0 42.657H3.546V9.242h36.767v33.516a1.523 1.523 0 0 0 3.046 0 3.05 3.05 0 0 1 3.047-3.047 3.05 3.05 0 0 1 3.047 3.047 3.05 3.05 0 0 1-3.047 3.047Zm3.047-8.323a6.057 6.057 0 0 0-3.047-.818c-1.109 0-2.15.298-3.047.818V9.242a3.05 3.05 0 0 1 3.047-3.047 3.05 3.05 0 0 1 3.047 3.047v28.24Z"/><path d="M35.64 12.29H8.22c-.842 0-1.524.681-1.524 1.523v27.421c0 .842.682 1.524 1.524 1.524h15.234a1.523 1.523 0 0 0 1.524-1.524v-3.047a4.578 4.578 0 0 1 3.046-4.309v7.356c0 .842.683 1.524 1.524 1.524h6.094c.841 0 1.523-.682 1.523-1.524V13.812c0-.84-.682-1.523-1.523-1.523Zm-1.523 27.42H31.07v-7.616c0-.842-.682-1.524-1.523-1.524-4.2 0-7.617 3.417-7.617 7.617v1.524H9.742v-9.14h6.094v4.57a1.524 1.524 0 0 0 3.047 0v-6.094c0-.841-.682-1.524-1.524-1.524H9.742V15.336h9.14v6.094h-4.57a1.523 1.523 0 0 0 0 3.047H26.5a1.523 1.523 0 0 0 0-3.047h-4.57v-6.094h12.187V39.71Z"/></g><defs><clipPath id="ava"><rect transform="translate(.5)"/></clipPath></defs></svg><svg viewBox="0 0 53 52" id="ic-repairs" xmlns="http://www.w3.org/2000/svg"><path d="M43.36 4.57c0-2.52-2.05-4.57-4.57-4.57H8.32C5.8 0 3.75 2.05 3.75 4.57v9.14c0 2.521 2.05 4.571 4.57 4.571h30.47c2.52 0 4.57-2.05 4.57-4.57v-1.524h1.523c.84 0 1.523.684 1.523 1.524v6.094c0 .84-.683 1.523-1.523 1.523H26.602c-2.52 0-4.57 2.05-4.57 4.57v4.57h-1.524c-.842 0-1.524.683-1.524 1.524v6.011l-1.523 6.192C16.47 48.157 19.464 52 23.555 52c4.092 0 7.083-3.847 6.095-7.8l-1.525-6.197v-6.01c0-.842-.682-1.524-1.523-1.524h-1.524v-4.57c0-.84.684-1.524 1.524-1.524h18.28c2.52 0 4.571-2.05 4.571-4.57V13.71c0-2.52-2.05-4.57-4.57-4.57h-1.524V4.57ZM25.077 33.516v3.148h-3.047v-3.148h3.047Zm-1.523 15.437a3.234 3.234 0 0 1-3.137-4.024l1.284-5.218h3.705l1.285 5.223a3.234 3.234 0 0 1-3.137 4.02ZM8.32 3.047h30.47c.839 0 1.523.683 1.523 1.523v1.524h-4.57c-1.481 0-3.375.554-5.567 1.196-2.961.868-6.317 1.85-9.668 1.85-3.267 0-5.57-.954-7.602-1.795-1.554-.643-3.02-1.251-4.586-1.251H6.797V4.57c0-.84.683-1.523 1.523-1.523ZM40.312 13.71c0 .84-.683 1.523-1.523 1.523H8.32c-.84 0-1.523-.683-1.523-1.523V9.14H8.32c.96 0 2.045.45 3.42 1.019 2.18.903 4.895 2.027 8.768 2.027 3.788 0 7.523-1.094 10.525-1.972 1.885-.553 3.666-1.074 4.71-1.074h4.57v4.57Z"/></svg><svg viewBox="0 0 16 17" id="ic-share" xmlns="http://www.w3.org/2000/svg"><path d="m.667 7.828 6.096-6.662v3.975h1.295c4.019 0 7.276 3.247 7.276 7.252v2.106l-.576-.628a10.344 10.344 0 0 0-7.629-3.355h-.366v3.974L.667 7.828Z"/></svg><svg viewBox="0 0 24 24" id="ic-twitter" xmlns="http://www.w3.org/2000/svg"><path d="M22.5 5.772a8.902 8.902 0 0 1-2.474.65 4.18 4.18 0 0 0 1.894-2.28 8.922 8.922 0 0 1-2.737 1 4.387 4.387 0 0 0-3.145-1.302c-2.379 0-4.308 1.847-4.308 4.124 0 .323.038.638.112.94-3.58-.173-6.754-1.815-8.879-4.31a3.962 3.962 0 0 0-.583 2.073c0 1.431.762 2.694 1.916 3.433a4.455 4.455 0 0 1-1.95-.518v.052c0 1.997 1.485 3.665 3.454 4.044-.36.093-.741.145-1.135.145a4.31 4.31 0 0 1-.81-.077c.548 1.64 2.138 2.832 4.023 2.865a8.89 8.89 0 0 1-5.35 1.763c-.348 0-.69-.02-1.028-.057a12.572 12.572 0 0 0 6.603 1.856c7.925 0 12.257-6.285 12.257-11.736l-.015-.534a8.412 8.412 0 0 0 2.155-2.13Z"/></svg><svg viewBox="0 0 24 24" id="ic-whatsapp" xmlns="http://www.w3.org/2000/svg"><path d="M22 11.742c0 5.381-4.395 9.743-9.818 9.743a9.835 9.835 0 0 1-4.746-1.212L2 22l1.772-5.227a9.64 9.64 0 0 1-1.409-5.03C2.363 6.361 6.76 2 12.182 2 17.605 2 22 6.362 22 11.742Zm-9.818-8.19c-4.552 0-8.255 3.674-8.255 8.19 0 1.793.584 3.452 1.573 4.803l-1.032 3.042 3.172-1.009a8.25 8.25 0 0 0 4.542 1.355c4.551 0 8.255-3.674 8.255-8.19 0-4.517-3.703-8.191-8.255-8.191Zm4.958 10.434c-.06-.1-.221-.16-.462-.278-.24-.12-1.424-.698-1.644-.777-.22-.08-.382-.12-.542.12-.16.238-.621.776-.762.935-.14.16-.28.18-.522.06-.24-.119-1.015-.371-1.935-1.185-.715-.633-1.198-1.414-1.339-1.653-.14-.24-.014-.368.106-.487.108-.107.24-.279.361-.418.12-.14.16-.24.24-.399.081-.16.041-.298-.02-.418-.06-.12-.541-1.295-.742-1.773-.2-.478-.4-.398-.541-.398-.14 0-.3-.02-.461-.02-.16 0-.422.06-.642.299-.22.239-.842.816-.842 1.991 0 1.175.862 2.31.982 2.47.12.159 1.665 2.649 4.111 3.605 2.447.956 2.447.637 2.889.597.44-.04 1.423-.578 1.625-1.135.2-.558.2-1.036.14-1.136Z"/></svg><svg viewBox="0 0 24 24" id="ic-youtube" xmlns="http://www.w3.org/2000/svg"><path fill-rule="evenodd" clip-rule="evenodd" d="M21.39 4.114a3.007 3.007 0 0 1 2.116 2.115c.514 1.878.494 5.792.494 5.792s0 3.895-.494 5.773a3.007 3.007 0 0 1-2.116 2.115c-1.878.495-9.39.495-9.39.495s-7.493 0-9.39-.514a3.007 3.007 0 0 1-2.116-2.116C0 15.916 0 12.001 0 12.001S0 8.107.494 6.23A3.068 3.068 0 0 1 2.61 4.094C4.488 3.6 12 3.6 12 3.6s7.513 0 9.391.514Zm-5.535 7.888L9.608 15.6V8.404l6.247 3.598Z"/></svg></svg>