<svg display="none"
  xmlns="http://www.w3.org/2000/svg">
  <symbol id="ic-constr" viewBox="0 0 53 52">
    <g>
      <path d="M50.9766 27.5234C51.8179 27.5234 52.5 26.8413 52.5 26V14.625C52.5 13.7837 51.8179 13.1016 50.9766 13.1016C49.9146 13.1016 29.168 13.1016 28.0234 13.1016V3.25C28.0234 2.40866 27.3413 1.72656 26.5 1.72656H10.25C9.40866 1.72656 8.72656 2.40866 8.72656 3.25V13.1016H2.02344C1.18209 13.1016 0.5 13.7837 0.5 14.625V26C0.5 26.8413 1.18209 27.5234 2.02344 27.5234H8.72656V35.8516H2.02344C1.18209 35.8516 0.5 36.5337 0.5 37.375V48.75C0.5 49.5913 1.18209 50.2734 2.02344 50.2734H50.9766C51.8179 50.2734 52.5 49.5913 52.5 48.75V37.375C52.5 36.5337 51.8179 35.8516 50.9766 35.8516H44.2734V27.5234H50.9766ZM49.4531 24.4766C47.8232 24.4766 37.7597 24.4766 36.1484 24.4766V16.1484H49.4531V24.4766ZM33.1016 24.4766C31.5059 24.4766 21.5046 24.4766 19.8984 24.4766V16.1484H33.1016V24.4766ZM11.7734 4.77344H24.9766V13.1016C23.3809 13.1016 13.3796 13.1016 11.7734 13.1016V4.77344ZM3.54688 24.4766V16.1484H16.8516V24.4766C15.2396 24.4766 5.17645 24.4766 3.54688 24.4766ZM11.7734 27.5234H24.9766V35.8516C23.3809 35.8516 13.3796 35.8516 11.7734 35.8516V27.5234ZM3.54688 38.8984H16.8516V47.2266H3.54688V38.8984ZM19.8984 38.8984H33.1016V47.2266H19.8984V38.8984ZM49.4531 38.8984V47.2266H36.1484V38.8984H49.4531ZM41.2266 35.8516C39.6309 35.8516 29.6296 35.8516 28.0234 35.8516V27.5234H41.2266V35.8516Z"/>
    </g>
  </symbol>

  <symbol id="ic-project" viewBox="0 0 53 52">
    <g>
      <path d="M46.4062 3.14844C44.1552 3.14844 42.1854 4.37521 41.1303 6.19531H2.02344C1.18209 6.19531 0.5 6.87741 0.5 7.71875V47.3281C0.5 48.1695 1.18209 48.8516 2.02344 48.8516H46.4062C49.7663 48.8516 52.5 46.1179 52.5 42.7578V9.24219C52.5 5.88209 49.7663 3.14844 46.4062 3.14844ZM46.4062 45.8047C45.8103 45.8047 4.1011 45.8047 3.54688 45.8047V9.24219H40.3125V42.7578C40.3125 43.5992 40.9946 44.2812 41.8359 44.2812C42.6773 44.2812 43.3594 43.5992 43.3594 42.7578C43.3594 41.0778 44.7262 39.7109 46.4062 39.7109C48.0863 39.7109 49.4531 41.0778 49.4531 42.7578C49.4531 44.4379 48.0863 45.8047 46.4062 45.8047ZM49.4531 37.4818C48.5563 36.9619 47.5153 36.6641 46.4062 36.6641C45.2972 36.6641 44.2562 36.9619 43.3594 37.4818V9.24219C43.3594 7.56214 44.7262 6.19531 46.4062 6.19531C48.0863 6.19531 49.4531 7.56214 49.4531 9.24219V37.4818Z" />
      <path d="M35.6406 12.2891H8.21875C7.37741 12.2891 6.69531 12.9712 6.69531 13.8125V41.2344C6.69531 42.0757 7.37741 42.7578 8.21875 42.7578H23.4531C23.8572 42.7578 24.2446 42.5972 24.5303 42.3115C24.8161 42.0259 24.9766 41.6384 24.9766 41.2344V38.1875C24.9766 36.2013 26.2501 34.507 28.0234 33.8782V41.2344C28.0234 42.0757 28.7055 42.7578 29.5469 42.7578H35.6406C36.482 42.7578 37.1641 42.0757 37.1641 41.2344V13.8125C37.1641 12.9712 36.482 12.2891 35.6406 12.2891ZM34.1172 39.7109H31.0703V32.0938C31.0703 31.2524 30.3882 30.5703 29.5469 30.5703C25.3468 30.5703 21.9297 33.9874 21.9297 38.1875V39.7109H9.74219V30.5703H15.8359V35.1406C15.8359 35.982 16.518 36.6641 17.3594 36.6641C18.2007 36.6641 18.8828 35.982 18.8828 35.1406V29.0469C18.8828 28.2055 18.2007 27.5234 17.3594 27.5234H9.74219V15.3359H18.8828V21.4297H14.3125C13.4712 21.4297 12.7891 22.1118 12.7891 22.9531C12.7891 23.7945 13.4712 24.4766 14.3125 24.4766H20.4062H26.5C27.3413 24.4766 28.0234 23.7945 28.0234 22.9531C28.0234 22.1118 27.3413 21.4297 26.5 21.4297H21.9297V15.3359H34.1172V39.7109Z"/>
    </g>
  </symbol>

  <symbol id="ic-design" viewBox="0 0 53 52">
    <g>
      <path d="M11.2656 36.6641C8.74555 36.6641 6.69531 38.7143 6.69531 41.2344C6.69531 43.7544 8.74555 45.8047 11.2656 45.8047C13.7857 45.8047 15.8359 43.7544 15.8359 41.2344C15.8359 38.7143 13.7857 36.6641 11.2656 36.6641ZM11.2656 42.7578C10.4256 42.7578 9.74219 42.0744 9.74219 41.2344C9.74219 40.3944 10.4256 39.7109 11.2656 39.7109C12.1056 39.7109 12.7891 40.3944 12.7891 41.2344C12.7891 42.0744 12.1056 42.7578 11.2656 42.7578Z" />
      <path d="M49.7504 30.9497C50.7897 29.5433 50.9811 27.582 50.0361 25.9454L43.9455 15.2945C42.8919 13.4696 40.6701 12.6369 38.6882 13.1667C39.1102 11.2698 38.2823 9.23477 36.5124 8.21295L25.9584 2.11961C24.4511 1.24922 22.6489 1.33839 21.2628 2.19568C20.4596 0.880141 19.0104 0 17.3594 0H5.07031C2.55024 0 0.5 2.05024 0.5 4.57031C0.5 5.62707 0.5 46.2132 0.5 47.4297C0.5 49.9498 2.55024 52 5.07031 52C6.25382 52 42.1374 52 47.9297 52C50.4498 52 52.5 49.9498 52.5 47.4297V35.1406C52.5 33.2675 51.3669 31.6547 49.7504 30.9497ZM18.8828 47.4297C18.8828 48.2697 18.1994 48.9531 17.3594 48.9531H5.07031C4.23029 48.9531 3.54688 48.2697 3.54688 47.4297C3.54688 46.7337 3.54688 34.2857 3.54688 33.6172H18.8828V47.4297ZM18.8828 30.5703H3.54688V18.2812H18.8828V30.5703ZM18.8828 15.2344H3.54688V4.57031C3.54688 3.73029 4.23029 3.04688 5.07031 3.04688H17.3594C18.1994 3.04688 18.8828 3.73029 18.8828 4.57031V15.2344ZM21.9297 6.04988L22.3533 5.31609C22.7736 4.58839 23.7073 4.33814 24.4349 4.75831L34.989 10.8516C35.7167 11.2718 35.9668 12.2056 35.5456 12.9353L33.7853 15.9951C33.7412 16.0602 33.7016 16.1278 33.6683 16.1984L21.9297 36.6026V6.04988ZM21.9297 42.7126L36.171 17.9581L39.1156 16.258C39.8621 15.8271 40.8859 16.0888 41.3037 16.8125L47.3944 27.4633C47.8156 28.1929 47.57 29.1283 46.8328 29.5539C45.7449 30.1837 23.0011 43.3507 21.9297 43.971V42.7126ZM49.4531 47.4297C49.4531 48.2697 48.7697 48.9531 47.9297 48.9531H21.6677C21.8301 48.4951 21.9212 48.0039 21.9282 47.4926L45.8954 33.6172H47.9297C48.7697 33.6172 49.4531 34.3006 49.4531 35.1406V47.4297Z" />
    </g>
  </symbol>

  <symbol id="ic-repairs" viewBox="0 0 53 52">
    <g>
      <path d="M43.3594 4.57031C43.3594 2.05029 41.3091 0 38.7891 0H8.32031C5.80029 0 3.75 2.05029 3.75 4.57031V13.7109C3.75 16.231 5.80029 18.2813 8.32031 18.2813H38.7891C41.3091 18.2813 43.3594 16.231 43.3594 13.7109V12.1875H44.8828C45.7227 12.1875 46.4063 12.8711 46.4063 13.7109V19.8047C46.4063 20.6446 45.7227 21.3281 44.8828 21.3281H26.6016C24.0815 21.3281 22.0313 23.3784 22.0313 25.8984V30.4688H20.5078C19.6664 30.4688 18.9844 31.1507 18.9844 31.9922V38.003L17.4609 44.1952C16.4703 48.1573 19.464 52 23.5547 52C27.6473 52 30.6379 48.1533 29.65 44.2007L28.125 38.003V31.9922C28.125 31.1507 27.443 30.4688 26.6016 30.4688H25.0781V25.8984C25.0781 25.0586 25.7617 24.375 26.6016 24.375H44.8828C47.4028 24.375 49.4531 22.3247 49.4531 19.8047V13.7109C49.4531 11.1909 47.4028 9.14063 44.8828 9.14063H43.3594V4.57031ZM25.0781 33.5156V36.6641H22.0313V33.5156H25.0781ZM23.5547 48.9531C21.456 48.9531 19.9044 46.9834 20.4182 44.9287L21.702 39.7109H25.4074L26.6924 44.9343C27.2026 46.9746 25.6609 48.9531 23.5547 48.9531ZM8.32031 3.04688H38.7891C39.6289 3.04688 40.3125 3.73044 40.3125 4.57031V6.09375H35.7422C34.2616 6.09375 32.3684 6.64838 30.1761 7.29028C27.2149 8.15753 23.859 9.14063 20.5078 9.14063C17.2412 9.14063 14.9381 8.18649 12.9061 7.34503C11.3525 6.70154 9.88541 6.09375 8.32031 6.09375H6.79688V4.57031C6.79688 3.73044 7.48044 3.04688 8.32031 3.04688ZM40.3125 13.7109C40.3125 14.5508 39.6289 15.2344 38.7891 15.2344H8.32031C7.48044 15.2344 6.79688 14.5508 6.79688 13.7109V9.14063H8.32031C9.27921 9.14063 10.3654 9.59052 11.7401 10.1598C13.9209 11.0632 16.6349 12.1875 20.5078 12.1875C24.2962 12.1875 28.031 11.0933 31.0326 10.2146C32.9179 9.66232 34.6988 9.14063 35.7422 9.14063H40.3125V13.7109Z" />
    </g>
  </symbol>

  <symbol id="ic-arrow-left" viewBox="0 0 18 12">
    <g>
      <path fill-rule="evenodd" clip-rule="evenodd" d="M6.20711 11.2071C5.81658 11.5976 5.18342 11.5976 4.79289 11.2071L0.292892 6.70711C-0.0976315 6.31658 -0.0976315 5.68342 0.292892 5.29289L4.79289 0.792893C5.18342 0.402369 5.81658 0.402369 6.20711 0.792893C6.59763 1.18342 6.59763 1.81658 6.20711 2.20711L3.41421 5L17 5C17.5523 5 18 5.44772 18 6C18 6.55228 17.5523 7 17 7L3.41421 7L6.20711 9.79289C6.59763 10.1834 6.59763 10.8166 6.20711 11.2071Z"/>
    </g>
  </symbol>

  <symbol id="ic-arrow-top" viewBox="0 0 24 24">
    <g>
      <path fill-rule="evenodd" clip-rule="evenodd" d="M4.29289 15.7071C3.90237 15.3166 3.90237 14.6834 4.29289 14.2929L11.2929 7.29289C11.6834 6.90237 12.3166 6.90237 12.7071 7.29289L19.7071 14.2929C20.0976 14.6834 20.0976 15.3166 19.7071 15.7071C19.3166 16.0976 18.6834 16.0976 18.2929 15.7071L12 9.41421L5.70711 15.7071C5.31658 16.0976 4.68342 16.0976 4.29289 15.7071Z"/>
    </g>
  </symbol>

  <symbol id="ic-arrow-right" viewBox="0 0 18 12">
    <g>
      <path fill-rule="evenodd" clip-rule="evenodd" d="M11.7929 0.792893C12.1834 0.402369 12.8166 0.402369 13.2071 0.792893L17.7071 5.29289C18.0976 5.68342 18.0976 6.31658 17.7071 6.70711L13.2071 11.2071C12.8166 11.5976 12.1834 11.5976 11.7929 11.2071C11.4024 10.8166 11.4024 10.1834 11.7929 9.79289L14.5858 7H1C0.447715 7 0 6.55228 0 6C0 5.44772 0.447715 5 1 5H14.5858L11.7929 2.20711C11.4024 1.81658 11.4024 1.18342 11.7929 0.792893Z"/>
    </g>
  </symbol>

  <symbol id="ic-check" viewBox="0 0 10 8">
    <g>
      <path fill-rule="evenodd" clip-rule="evenodd" d="M9.82771 0.195262C10.0574 0.455612 10.0574 0.877722 9.82771 1.13807L3.94536 7.80474C3.71564 8.06509 3.34319 8.06509 3.11347 7.80474L0.17229 4.4714C-0.05743 4.21105 -0.05743 3.78894 0.17229 3.5286C0.40201 3.26825 0.77446 3.26825 1.00418 3.5286L3.52941 6.39052L8.99582 0.195262C9.22554 -0.0650874 9.59799 -0.0650874 9.82771 0.195262Z" />
    </g>
  </symbol>

  <symbol id="ic-whatsapp" viewBox="0 0 24 24">
    <g>
      <path d="M22 11.7424C22 17.1231 17.6047 21.4849 12.1818 21.4849C10.4602 21.4849 8.84289 21.0449 7.43578 20.2727L2 22L3.77222 16.7729C2.87822 15.3049 2.36333 13.5831 2.36333 11.7424C2.36333 6.36178 6.75911 2 12.1818 2C17.6051 2 22 6.36178 22 11.7424ZM12.1818 3.55156C7.62978 3.55156 3.92711 7.226 3.92711 11.7424C3.92711 13.5347 4.51133 15.1944 5.49956 16.5447L4.46822 19.5867L7.64044 18.5784C8.94378 19.4342 10.5051 19.9333 12.182 19.9333C16.7333 19.9333 20.4367 16.2593 20.4367 11.7429C20.4367 7.22644 16.7336 3.55156 12.1818 3.55156ZM17.1398 13.9862C17.0791 13.8869 16.9189 13.8269 16.6784 13.7076C16.4376 13.5882 15.254 13.0102 15.034 12.9309C14.8133 12.8513 14.6524 12.8113 14.4922 13.0502C14.332 13.2893 13.8707 13.8269 13.73 13.9862C13.5896 14.146 13.4493 14.166 13.2084 14.0464C12.968 13.9271 12.1927 13.6747 11.2733 12.8613C10.558 12.2284 10.0749 11.4471 9.93444 11.2078C9.79422 10.9689 9.91978 10.8398 10.04 10.7209C10.1484 10.6138 10.2809 10.442 10.4011 10.3027C10.5218 10.1631 10.5618 10.0638 10.6416 9.90422C10.7222 9.74489 10.682 9.60556 10.6216 9.48578C10.5616 9.36644 10.0798 8.19133 9.87933 7.71311C9.67889 7.23533 9.47867 7.31489 9.338 7.31489C9.19778 7.31489 9.03711 7.29489 8.87667 7.29489C8.71622 7.29489 8.45533 7.35467 8.23467 7.59356C8.01422 7.83267 7.39267 8.41044 7.39267 9.58533C7.39267 10.7604 8.25467 11.8958 8.37533 12.0549C8.49556 12.214 10.0398 14.7038 12.4864 15.66C14.9333 16.6158 14.9333 16.2969 15.3747 16.2569C15.8156 16.2171 16.7982 15.6793 16.9996 15.122C17.1996 14.5638 17.1996 14.0858 17.1398 13.9862Z"/>
    </g>
  </symbol>

  <symbol id="ic-messanger" viewBox="0 0 24 24">
    <g>
      <path d="M12 2C6.4775 2 2 6.145 2 11.2587C2 14.1725 3.45375 16.7712 5.72625 18.4688V22L9.13125 20.1313C10.04 20.3825 11.0025 20.5187 12 20.5187C17.5225 20.5187 22 16.3737 22 11.26C22 6.14625 17.5225 2 12 2ZM12.9937 14.4688L10.4475 11.7525L5.47875 14.4688L10.945 8.66625L13.5538 11.3825L18.46 8.66625L12.9937 14.4688Z"/>
    </g>
  </symbol>

  <symbol id="ic-facebook" viewBox="0 0 24 24">
    <g>
      <path d="M17.5628 1.00458L14.7856 1C11.6654 1 9.64903 3.12509 9.64903 6.41423V8.91055H6.85662C6.61532 8.91055 6.41992 9.1115 6.41992 9.35937V12.9763C6.41992 13.2241 6.61554 13.4249 6.85662 13.4249H9.64903V22.5514C9.64903 22.7993 9.84443 23 10.0857 23H13.729C13.9703 23 14.1657 22.799 14.1657 22.5514V13.4249H17.4307C17.672 13.4249 17.8674 13.2241 17.8674 12.9763L17.8688 9.35937C17.8688 9.24036 17.8226 9.12638 17.7409 9.04215C17.6591 8.95793 17.5477 8.91055 17.4318 8.91055H14.1657V6.79439C14.1657 5.77728 14.4017 5.26094 15.6915 5.26094L17.5624 5.26025C17.8035 5.26025 17.9989 5.0593 17.9989 4.81166V1.45317C17.9989 1.20576 17.8037 1.00504 17.5628 1.00458Z"/>
    </g>
  </symbol>

  <symbol id="ic-twitter" viewBox="0 0 24 24">
    <g>
      <path d="M22.5 5.77233C21.7271 6.10027 20.8978 6.32267 20.0264 6.42196C20.9161 5.91181 21.5972 5.10263 21.92 4.1414C21.0854 4.61383 20.1642 4.95688 19.1826 5.14285C18.3966 4.33994 17.2785 3.83984 16.0384 3.83984C13.6593 3.83984 11.7303 5.68691 11.7303 7.9637C11.7303 8.2866 11.7683 8.60199 11.8418 8.90357C8.26201 8.73141 5.08768 7.08917 2.96314 4.59372C2.59176 5.20189 2.38049 5.91053 2.38049 6.66697C2.38049 8.09814 3.14161 9.36093 4.2964 10.0997C3.5904 10.0771 2.92639 9.89116 2.34508 9.58205V9.63357C2.34508 11.6314 3.83056 13.2988 5.80024 13.6783C5.43936 13.7713 5.05882 13.8228 4.66514 13.8228C4.38696 13.8228 4.11794 13.7964 3.85417 13.7461C4.40267 15.3859 5.99315 16.5783 7.87756 16.611C6.40388 17.7167 4.54573 18.3739 2.52749 18.3739C2.17976 18.3739 1.83724 18.3537 1.5 18.3173C3.40671 19.4896 5.67036 20.1732 8.10327 20.1732C16.028 20.1732 20.3597 13.8881 20.3597 8.43741L20.3453 7.90341C21.1917 7.32537 21.9239 6.59912 22.5 5.77233Z"/>
    </g>
  </symbol>

  <symbol id="ic-youtube" viewBox="0 0 24 24">
    <g>
      <path fill-rule="evenodd" clip-rule="evenodd" d="M21.3903 4.11358C22.4182 4.39044 23.2288 5.20086 23.5055 6.22899C24.0197 8.10691 23.9999 12.0213 23.9999 12.0213C23.9999 12.0213 23.9999 15.9158 23.5057 17.7939C23.2288 18.8218 22.4184 19.6324 21.3903 19.9091C19.5122 20.4035 12 20.4035 12 20.4035C12 20.4035 4.50731 20.4035 2.60961 19.8895C1.58148 19.6127 0.771054 18.802 0.4942 17.7741C0 15.9158 0 12.0015 0 12.0015C0 12.0015 0 8.10691 0.4942 6.22899C0.770871 5.20104 1.60125 4.37066 2.60943 4.09399C4.48753 3.59961 11.9998 3.59961 11.9998 3.59961C11.9998 3.59961 19.5122 3.59961 21.3903 4.11358ZM15.8549 12.0016L9.60788 15.5996V8.40355L15.8549 12.0016Z"/>
    </g>
  </symbol>

  <symbol id="ic-up-btn" viewBox="0 0 24 24">
    <g>
      <path fill-rule="evenodd" clip-rule="evenodd" d="M4.29289 15.7071C3.90237 15.3166 3.90237 14.6834 4.29289 14.2929L11.2929 7.29289C11.6834 6.90237 12.3166 6.90237 12.7071 7.29289L19.7071 14.2929C20.0976 14.6834 20.0976 15.3166 19.7071 15.7071C19.3166 16.0976 18.6834 16.0976 18.2929 15.7071L12 9.41421L5.70711 15.7071C5.31658 16.0976 4.68342 16.0976 4.29289 15.7071Z"/>
    </g>
  </symbol>

  <symbol id="footer-logo" viewBox="0 0 142 24">
    <g>
      <path d="M0 12.1089C0 5.45433 3.60461 1.41797 9.50308 1.41797C13.9815 1.41797 17.5862 4.14524 18.2415 8.18161C18.3508 8.61797 18.0231 8.94524 17.5862 8.94524H14.7462C14.4185 8.94524 14.2 8.72706 14.0908 8.39979C13.5446 6.32706 11.7969 5.01797 9.50308 5.01797C6.33538 5.01797 4.36923 7.74524 4.36923 12.1089C4.36923 16.4725 6.33538 19.1998 9.61231 19.1998C11.9062 19.1998 13.5446 17.9998 14.2 16.0362C14.3092 15.7089 14.5277 15.4907 14.8554 15.4907H17.6954C18.1323 15.4907 18.46 15.9271 18.3508 16.2543C17.6954 20.1816 14.2 22.7998 9.61231 22.7998C3.60462 22.7998 0 18.6543 0 12.1089Z"/>
      <path d="M26.5428 22.2546H23.3751C23.0474 22.2546 22.8289 22.0364 22.8289 21.7092V2.83643C22.8289 2.40007 23.2659 1.9637 23.7028 1.9637H31.3489C35.8274 1.9637 38.5582 4.47279 38.5582 8.40007C38.5582 10.691 37.4659 12.7637 35.6089 13.8546C35.172 14.0728 35.0628 14.6182 35.2812 14.9455L38.6674 21.3819C38.8859 21.7092 38.5582 22.1455 38.2305 22.1455H34.6259C34.4074 22.1455 34.1889 22.0364 34.0797 21.8182L30.912 15.2728C30.8028 14.9455 30.4751 14.8364 30.1474 14.8364H27.6351C27.3074 14.8364 27.0889 15.0546 27.0889 15.3819V21.8182C27.1982 22.0364 26.8705 22.2546 26.5428 22.2546ZM27.1982 11.1273C27.1982 11.4546 27.4166 11.6728 27.7443 11.6728H31.0212C33.2059 11.6728 34.4074 10.4728 34.4074 8.50916C34.4074 6.54552 33.0966 5.34552 31.0212 5.34552H27.8535C27.5259 5.34552 27.3074 5.5637 27.3074 5.89098V11.1273H27.1982Z"/>
      <path d="M56.2537 22.2546H44.2383C43.8014 22.2546 43.4737 21.9273 43.4737 21.491V2.72734C43.4737 2.29098 43.8014 1.9637 44.2383 1.9637H56.2537C56.6906 1.9637 57.0183 2.29098 57.0183 2.72734V4.80007C57.0183 5.23643 56.6906 5.5637 56.2537 5.5637H48.2798C47.9521 5.5637 47.7337 5.78188 47.7337 6.10916V9.81825C47.7337 10.1455 47.9521 10.3637 48.2798 10.3637H55.7075C56.1445 10.3637 56.4721 10.691 56.4721 11.1273V12.9819C56.4721 13.4182 56.1445 13.7455 55.7075 13.7455H48.2798C47.9521 13.7455 47.7337 13.9637 47.7337 14.291V18.4364C47.7337 18.7637 47.9521 18.9819 48.2798 18.9819H56.2537C56.6906 18.9819 57.0183 19.3092 57.0183 19.7455V21.8182C57.0183 21.9273 56.6906 22.2546 56.2537 22.2546Z"/>
      <path d="M73.1846 17.3455H66.9584C66.6307 17.3455 66.4123 17.5637 66.303 17.7819L65.1015 21.8182C64.9923 22.1455 64.7738 22.2546 64.4461 22.2546H61.6061C61.1692 22.2546 60.8415 21.8182 60.9507 21.3819L67.5046 2.40007C67.6138 2.18189 67.8323 1.9637 68.16 1.9637H72.2015C72.5292 1.9637 72.7476 2.18189 72.8569 2.40007L79.4107 21.3819C79.5199 21.8182 79.1923 22.2546 78.7553 22.2546H75.5876C75.2599 22.2546 75.0415 22.0364 74.9323 21.8182L73.7307 17.7819C73.7307 17.5637 73.403 17.3455 73.1846 17.3455ZM67.8323 14.1819H72.3107C72.5292 14.1819 72.6384 13.9637 72.6384 13.7455L70.2353 6.10916H70.0169L67.6138 13.7455C67.5046 13.9637 67.6138 14.1819 67.8323 14.1819Z"/>
      <path d="M86.2925 21.4914V6.00049C86.2925 5.67322 86.074 5.45504 85.7463 5.45504H80.9402C80.5033 5.45504 80.0663 5.12777 80.0663 4.58231V2.72777C80.0663 2.2914 80.394 1.85504 80.9402 1.85504H95.7955C96.2324 1.85504 96.6694 2.18231 96.6694 2.72777V4.58231C96.6694 5.01867 96.3417 5.45504 95.7955 5.45504H90.9894C90.6617 5.45504 90.4432 5.67322 90.4432 6.00049V21.6005C90.4432 22.0369 90.1155 22.3641 89.6786 22.3641H86.9479C86.6202 22.255 86.2925 21.9278 86.2925 21.4914Z"/>
      <path d="M113.381 22.2546H101.366C100.929 22.2546 100.601 21.9273 100.601 21.491V2.72734C100.601 2.29098 100.929 1.9637 101.366 1.9637H113.381C113.818 1.9637 114.146 2.29098 114.146 2.72734V4.80007C114.146 5.23643 113.818 5.5637 113.381 5.5637H105.408C105.08 5.5637 104.861 5.78188 104.861 6.10916V9.81825C104.861 10.1455 105.08 10.3637 105.408 10.3637H112.835C113.272 10.3637 113.6 10.691 113.6 11.1273V12.9819C113.6 13.4182 113.272 13.7455 112.835 13.7455H105.408C105.08 13.7455 104.861 13.9637 104.861 14.291V18.4364C104.861 18.7637 105.08 18.9819 105.408 18.9819H113.381C113.818 18.9819 114.146 19.3092 114.146 19.7455V21.8182C114.146 21.9273 113.818 22.2546 113.381 22.2546Z"/>
      <path d="M128.564 10.5827L121.792 1.74634C121.355 1.30998 120.809 1.0918 120.263 1.0918C119.717 1.0918 119.171 1.30998 118.734 1.74634C117.969 2.61907 117.969 3.92816 118.734 4.80089L124.086 12.0009L118.734 19.2009C117.969 20.0736 117.969 21.3827 118.734 22.2554C119.171 22.6918 119.717 22.91 120.263 22.91C120.809 22.91 121.355 22.6918 121.792 22.2554L128.564 13.4191C129.329 12.7645 129.329 11.4554 128.564 10.5827Z" fill="#FF5A30"/>
      <path d="M131.451 10.5827L138.223 1.74634C138.66 1.30998 139.207 1.0918 139.753 1.0918C140.299 1.0918 140.845 1.30998 141.282 1.74634C142.047 2.61907 142.047 3.92816 141.282 4.80089L135.93 12.0009L141.282 19.2009C142.047 20.0736 142.047 21.3827 141.282 22.2554C140.845 22.6918 140.299 22.91 139.753 22.91C139.207 22.91 138.66 22.6918 138.223 22.2554L131.451 13.4191C130.686 12.7645 130.686 11.4554 131.451 10.5827Z" fill="#FF5A30"/>
    </g>
  </symbol>
  
  <symbol id="ic-chat" viewBox="0 0 16 17">
    <path fill-rule="evenodd" clip-rule="evenodd" d="M14.6153 7.54557C14.5204 8.20339 14.2954 8.82861 13.9619 9.40355C13.9869 9.5459 13.9997 9.68979 13.9997 9.83429C13.9997 10.3362 13.8543 10.8165 13.5849 11.2529C13.4504 11.4707 13.4158 11.726 13.4025 11.8946C13.3873 12.0879 13.3924 12.2994 13.4062 12.5025C13.4217 12.7304 13.4497 12.9697 13.4818 13.1954C13.2216 13.1196 12.9395 13.0434 12.6704 12.9826C12.4465 12.9321 12.2174 12.8891 12.0099 12.8676C11.8289 12.849 11.5674 12.8345 11.3335 12.9101C10.8221 13.0754 10.2594 13.1676 9.66636 13.1676C8.96109 13.1676 8.31335 13.0424 7.74559 12.825C7.60903 12.8312 7.47147 12.8343 7.33301 12.8343C6.52993 12.8343 5.75701 12.7287 5.03385 12.5335C6.08516 13.7494 7.81828 14.501 9.66636 14.501C10.3883 14.501 11.0812 14.3901 11.7198 14.1864C11.7209 14.1865 11.723 14.1864 11.726 14.1864C11.7424 14.186 11.7879 14.1851 11.8729 14.1939C12.0067 14.2077 12.1786 14.2385 12.377 14.2833C12.7719 14.3724 13.2157 14.5038 13.5615 14.6136C14.2949 14.8464 15.0056 14.2064 14.8745 13.4621C14.8181 13.1418 14.7595 12.7508 14.7365 12.4122C14.7249 12.2419 14.7236 12.1021 14.7317 11.9995C14.7351 11.957 14.7394 11.9304 14.7421 11.9162C15.1172 11.2949 15.333 10.5874 15.333 9.83429C15.333 8.98526 15.0693 8.20995 14.6153 7.54557Z"/>
    <path fill-rule="evenodd" clip-rule="evenodd" d="M3.73109 4.29943C2.83245 4.98662 2.33306 5.88871 2.33306 6.83398C2.33306 7.30534 2.45577 7.75932 2.68599 8.18147C2.77367 8.34226 2.79854 8.50812 2.80744 8.6204C2.81714 8.74283 2.8123 8.86867 2.80166 8.98633C2.78034 9.22191 2.72949 9.48884 2.66849 9.75174C2.59715 10.0593 2.50572 10.3872 2.41296 10.6952C2.76512 10.5672 3.15003 10.436 3.51493 10.3296C3.80985 10.2435 4.10767 10.1689 4.37274 10.1269C4.60108 10.0908 4.93243 10.0554 5.2177 10.1541C5.85792 10.3756 6.57411 10.5007 7.33306 10.5007C8.76451 10.5007 10.0358 10.0562 10.935 9.36854C11.8337 8.68135 12.3331 7.77926 12.3331 6.83398C12.3331 5.88871 11.8337 4.98662 10.935 4.29943C10.0358 3.61176 8.76451 3.16732 7.33306 3.16732C5.90162 3.16732 4.63034 3.61176 3.73109 4.29943ZM2.92116 3.24028C4.07283 2.35959 5.63489 1.83398 7.33306 1.83398C9.03123 1.83398 10.5933 2.35959 11.745 3.24028C12.8973 4.12145 13.6664 5.38602 13.6664 6.83398C13.6664 8.28194 12.8973 9.54652 11.745 10.4277C10.5933 11.3084 9.03123 11.834 7.33306 11.834C6.43769 11.834 5.58244 11.688 4.80591 11.4224C4.80513 11.4246 4.74215 11.4184 4.58098 11.4439C4.39521 11.4733 4.15809 11.5308 3.88836 11.6095C3.35138 11.7662 2.74835 11.9878 2.28902 12.1666C1.49327 12.4763 0.682633 11.712 0.95074 10.8979C1.09284 10.4665 1.26043 9.92121 1.36966 9.45041C1.42468 9.21324 1.46039 9.01384 1.47375 8.86618C1.47839 8.81492 1.47958 8.77756 1.47932 8.7523C1.17246 8.16592 0.99973 7.51748 0.99973 6.83398C0.99973 5.38602 1.76887 4.12145 2.92116 3.24028Z"/>
  </symbol>
</svg>